# xmcd CD database file
#
# Track frame offsets:
#	150
#	43530
#	63013
#	89632
#	124392
#	148840
#	167260
#	190961
#
# Disc length: 2884 seconds
#
# Revision: 0
# Processed by: cddbd v1.5PL3 Copyright (c) Steve Scherf et al.
# Submitted via: CDex 1.51
#
DISCID=6d0b4208
DTITLE=Paul "Sequence" Ferguson - Strong Love
DYEAR=2003
DGENRE=Jazz
TTITLE0=At the Stroke of Midnight
TTITLE1=Simply The (Finis)
TTITLE2=Strong Love
TTITLE3=Mystical Interpretations
TTITLE4=Mood Change
TTITLE5=Trust Love
TTITLE6=Thinking of You
TTITLE7=2 Lips 4 - U
EXTD=YEAR: 2003
EXTT0=
EXTT1=
EXTT2=
EXTT3=
EXTT4=
EXTT5=
EXTT6=
EXTT7=
PLAYORDER=
